<svg xmlns="http://www.w3.org/2000/svg" version="1.1" xmlns:xlink="http://www.w3.org/1999/xlink" xmlns:svgjs="http://svgjs.com/svgjs" width="682" height="194" preserveAspectRatio="none" viewBox="0 0 682 194"><g mask="url(&quot;#SvgjsMask1259&quot;)" fill="none"><rect width="682" height="194" x="0" y="0" fill="url(#SvgjsLinearGradient1260)"></rect><path d="M200.79 198.8C283.13 196.89 353.91 82.74 509.09 82.62 664.27 82.5 739.51 127.12 817.39 127.24" stroke="rgba(255, 213, 221, 1)" stroke-width="2"></path><path d="M265.83 209.18C329.63 201.67 366.88 60.03 474.48 59.22 582.07 58.41 629.78 103.59 683.12 103.84" stroke="rgba(255, 213, 221, 1)" stroke-width="2"></path><path d="M33.85 210.53C125.52 206.21 197.24 48.55 363.21 48.39 529.17 48.23 607.86 127.37 692.56 127.93" stroke="rgba(255, 213, 221, 1)" stroke-width="2"></path><path d="M229.11 210.36C305.43 208.48 371.21 100.6 514.08 100.57 656.95 100.54 725.81 168 799.05 168.47" stroke="rgba(255, 213, 221, 1)" stroke-width="2"></path><path d="M75.57 230.43C134.07 229.27 184.99 152.09 296.07 151.99 407.15 151.89 406.32 176.24 516.57 176.24 626.82 176.24 681.61 152.03 737.07 151.99" stroke="rgba(255, 213, 221, 1)" stroke-width="2"></path></g><defs><mask id="SvgjsMask1259"><rect width="682" height="194" fill="#ffffff"></rect></mask><linearGradient x1="17.89%" y1="-62.89%" x2="82.11%" y2="162.89%" gradientUnits="userSpaceOnUse" id="SvgjsLinearGradient1260"><stop stop-color="rgba(255, 189, 199, 1)" offset="0"></stop><stop stop-color="rgba(255, 204, 212, 1)" offset="1"></stop></linearGradient></defs></svg>