<svg xmlns="http://www.w3.org/2000/svg" version="1.1" xmlns:xlink="http://www.w3.org/1999/xlink" xmlns:svgjs="http://svgjs.com/svgjs" width="682" height="194" preserveAspectRatio="none" viewBox="0 0 682 194"><g mask="url(&quot;#SvgjsMask1191&quot;)" fill="none"><rect width="682" height="194" x="0" y="0" fill="url(#SvgjsLinearGradient1192)"></rect><path d="M259.3 229.71C314.81 216.36 296.38 67.8 419.65 67.13 542.91 66.46 659.02 121.26 740.34 121.45" stroke="rgba(132, 117, 244, 1)" stroke-width="2"></path><path d="M352.66 194.8C414.94 185.98 449.91 40.22 550.89 39.86 651.88 39.5 695.93 116.09 749.13 117.46" stroke="rgba(132, 117, 244, 1)" stroke-width="2"></path><path d="M321.29 215.44C383.95 203.26 413.82 44.07 510.2 43.68 606.58 43.29 646.31 136.11 699.11 138.74" stroke="rgba(132, 117, 244, 1)" stroke-width="2"></path><path d="M290 220.69C347.8 219.91 393.66 154.68 510.91 152.34 628.15 150 672.27 64.76 731.81 63.1" stroke="rgba(132, 117, 244, 1)" stroke-width="2"></path><path d="M216 217.8C281.92 214.63 327.51 102.67 452.45 100.45 577.4 98.23 628.75 56.02 688.91 55.83" stroke="rgba(132, 117, 244, 1)" stroke-width="2"></path></g><defs><mask id="SvgjsMask1191"><rect width="682" height="194" fill="#ffffff"></rect></mask><linearGradient x1="17.89%" y1="-62.89%" x2="82.11%" y2="162.89%" gradientUnits="userSpaceOnUse" id="SvgjsLinearGradient1192"><stop stop-color="rgba(106, 91, 226, 1)" offset="0"></stop><stop stop-color="rgba(97, 85, 204, 1)" offset="1"></stop></linearGradient></defs></svg>