<svg xmlns="http://www.w3.org/2000/svg" version="1.1" xmlns:xlink="http://www.w3.org/1999/xlink" xmlns:svgjs="http://svgjs.com/svgjs" width="1200" height="300" preserveAspectRatio="none" viewBox="0 0 1200 300"><g mask="url(&quot;#SvgjsMask1120&quot;)" fill="none"><rect width="1200" height="300" x="0" y="0" fill="rgba(255, 204, 212, 1)"></rect><path d="M -244.47642423501517,158 C -196.48,135.8 -100.48,36.4 -4.476424235015184,47 C 91.52,57.6 139.52,206.4 235.52357576498483,211 C 331.52,215.6 379.52,70.6 475.5235757649848,70 C 571.52,69.4 619.52,209.6 715.5235757649848,208 C 811.52,206.4 859.52,50 955.5235757649848,62 C 1051.52,74 1146.63,274.4 1195.5235757649848,268 C 1244.42,261.6 1199.1,77.6 1200,30" stroke="rgba(255, 220, 227, 1)" stroke-width="2"></path><path d="M -127.99555836756228,245 C -80,210.8 16,72.4 112.00444163243772,74 C 208,75.6 256,262.8 352.0044416324377,253 C 448,243.2 496,24.4 592.0044416324378,25 C 688,25.6 736,240.4 832.0044416324378,256 C 928,271.6 976,107.6 1072.0044416324376,103 C 1168,98.4 1286.41,224.2 1312.0044416324376,233 C 1337.6,241.8 1222.4,164.2 1200,147" stroke="rgba(255, 220, 227, 1)" stroke-width="2"></path><path d="M -349.21334966877475,248 C -301.21,222.2 -205.21,126.2 -109.21334966877475,119 C -13.21,111.8 34.79,214.4 130.78665033122525,212 C 226.79,209.6 274.79,113 370.78665033122525,107 C 466.79,101 514.79,188 610.7866503312252,182 C 706.79,176 754.79,71.8 850.7866503312252,77 C 946.79,82.2 1020.94,213.4 1090.7866503312252,208 C 1160.63,202.6 1178.16,81.6 1200,50" stroke="rgba(255, 220, 227, 1)" stroke-width="2"></path></g><defs><mask id="SvgjsMask1120"><rect width="1200" height="300" fill="#ffffff"></rect></mask></defs></svg>